<svg xmlns="http://www.w3.org/2000/svg" fill="none" viewBox="0 0 100 100"><path fill="#FF4B4B" d="m50.077 56.453-17.473-9.236-30.33-16.03c-.027-.028-.082-.028-.11-.028-1.108-.526-2.243.582-1.827 1.689L15.79 72.264l.002.008c.017.039.03.078.048.116.634 1.47 2.018 2.378 3.524 2.736.127.028.218.052.371.083.153.034.366.08.548.094l.089.005h.022l.067.006h.03q.03.004.06.003h.037l.066.003a271.7 271.7 0 0 0 58.89 0q.353 0 .687-.034l.21-.025.028-.005q.07-.01.141-.023.104-.013.208-.035c.138-.03.201-.053.389-.118.188-.064.5-.177.695-.271s.33-.184.494-.287a9 9 0 0 0 .59-.404c.083-.064.14-.105.201-.163l-.033-.02z"/><path fill="#7D353B" d="M97.929 31.187H97.9l-30.34 16.03 16.865 25.12 15.416-39.489v-.055c.388-1.163-.803-2.215-1.913-1.606"/><path fill="#BD4043" d="M51.694 23.565c-.776-1.133-2.464-1.133-3.212 0L32.604 47.217l17.473 9.236 33.112 17.5c.208-.204.375-.403.55-.612q.388-.472.687-1.005L67.56 47.216z"/></svg>